<svg id="Layer_1" data-name="Layer 1" xmlns="http://www.w3.org/2000/svg" xmlns:xlink="http://www.w3.org/1999/xlink" width="500mm" height="525mm" viewBox="0 0 1417.32 1488.19"><defs><linearGradient id="linear-gradient" x1="1079.86" y1="1122.32" x2="297.57" y2="331.12" gradientUnits="userSpaceOnUse"><stop offset="0.36" stop-color="#ba8037"/><stop offset="0.53" stop-color="#d9a86a"/><stop offset="1" stop-color="#f8cc95"/></linearGradient></defs><polygon points="1085.3 1116.95 871.36 1116.95 871.36 792.83 785.7 877.05 613.35 1046.48 613.35 676.58 530.92 595.55 530.92 1116.95 314.85 1116.95 358.57 1042.88 358.57 391.91 530.92 561.34 613.35 642.38 613.35 18.9 642.83 47.45 642.83 143.68 785.7 282.02 785.7 842.85 871.36 758.62 871.36 484.31 1043.72 317.42 1043.72 1046.5 1085.3 1116.95" fill="url(#linear-gradient)"/><path d="M112.58,1285.45l-.13-59-28.17,48.64h-10l-28-47.38v57.78H25.48V1187H43.8l35.83,61.16L114.91,1187h18.18l.28,98.41Z" fill="#c07f30"/><path d="M224.7,1267.18v18.27H150.59V1187h72.33v18.28H172.6v21.37H217v17.71H172.6v22.78Z" fill="#c07f30"/><path d="M299.9,1234.7h20.24v39.93c-10.53,8.15-25,12.51-38.7,12.51-30.08,0-52.23-21.23-52.23-50.89s22.15-50.89,52.64-50.89c16.82,0,30.77,5.9,40.07,17l-14.22,13.49c-7-7.59-15-11.1-24.75-11.1-18.6,0-31.32,12.79-31.32,31.49,0,18.41,12.72,31.49,31,31.49a34.29,34.29,0,0,0,17.23-4.22Z" fill="#c07f30"/><path d="M396.85,1264.37H352.41l-8.48,21.08h-22.7L363.89,1187h21.88l42.8,98.41H405.33Zm-7-17.3-15.18-37.67-15.17,37.67Z" fill="#c07f30"/><path d="M549.31,1285.45l-.14-59L521,1275.05H511l-28-47.38v57.78H462.2V1187h18.32l35.83,61.16L551.63,1187h18.19l.27,98.41Z" fill="#c07f30"/><path d="M661.42,1267.18v18.27H587.31V1187h72.34v18.28H609.32v21.37h44.45v17.71H609.32v22.78Z" fill="#c07f30"/><path d="M760.69,1187v98.41H742.51l-47.73-59.75v59.75H672.9V1187h18.33l47.58,59.75V1187Z" fill="#c07f30"/><path d="M839,1264.37H794.6l-8.48,21.08h-22.7L806.08,1187H828l42.8,98.41H847.52Zm-7-17.3-15.17-37.67-15.18,37.67Z" fill="#c07f30"/><path d="M934.89,1285.45,916.43,1258H896.05v27.41H873.9V1187h41.43c25.58,0,41.57,13.64,41.57,35.71,0,14.77-7.24,25.59-19.69,31.07l21.47,31.63ZM914.1,1205.6H896.05v34.31H914.1c13.54,0,20.38-6.47,20.38-17.16S927.64,1205.6,914.1,1205.6Z" fill="#c07f30"/><path d="M1030.6,1264.37H986.16l-8.48,21.08H955L997.64,1187h21.88l42.8,98.41h-23.24Zm-7-17.3-15.18-37.67-15.18,37.67Z" fill="#c07f30"/><path d="M1183.88,1285.45l-.14-59-28.17,48.64h-10l-28-47.38v57.78h-20.79V1187h18.33l35.82,61.16L1186.2,1187h18.19l.27,98.41Z" fill="#c07f30"/><path d="M1284.92,1264.37h-44.44l-8.48,21.08h-22.7L1252,1187h21.87l42.8,98.41H1293.4Zm-7-17.3-15.18-37.67-15.18,37.67Z" fill="#c07f30"/><path d="M1312.26,1275.75l7.52-17.15a55.23,55.23,0,0,0,31.59,10.27c13.13,0,18.46-4.5,18.46-10.55,0-18.41-55.65-5.76-55.65-42.32,0-16.72,13.12-30.64,40.33-30.64,12,0,24.34,3,33.23,8.71l-6.83,17.3c-8.89-5.21-18.05-7.74-26.53-7.74-13.13,0-18.19,5.07-18.19,11.25,0,18.14,55.66,5.62,55.66,41.75,0,16.45-13.27,30.51-40.62,30.51C1336.05,1287.14,1320.74,1282.5,1312.26,1275.75Z" fill="#c07f30"/><path d="M223.39,1441.6c0,17.07-12,26.83-35.88,26.83H143.59V1368h41.19c21.29,0,33.56,9.47,33.56,25.82,0,11.47-5.86,19.08-14.59,22.81C216,1419.52,223.39,1428,223.39,1441.6Zm-69.71-64.83v36.43H184.1c15.28,0,24.15-6.16,24.15-18.21s-8.87-18.22-24.15-18.22Zm59.62,64c0-13-9.14-18.79-25.92-18.79h-33.7v37.73h33.7C204.16,1459.68,213.3,1453.94,213.3,1440.74Z" fill="#231f20"/><path d="M346.44,1459.25v9.18H278.92V1368H344.4v9.18H289v35.72h49.38v9H289v37.3Z" fill="#231f20"/><path d="M467.86,1468.43,446,1436.15a63.89,63.89,0,0,1-7.64.44H412.75v31.84h-10.1V1368h35.74c24.28,0,39,12.91,39,34.43,0,15.78-7.92,26.82-21.83,31.55l23.33,34.43Zm-.55-66c0-16.07-10.09-25.25-29.19-25.25H412.75v50.35h25.37C457.22,1427.55,467.31,1418.23,467.31,1402.45Z" fill="#231f20"/><path d="M516.16,1455l6-7.18c5.18,8,12.14,12.34,20.6,12.34,11.73,0,17.73-7.32,17.73-22.09V1377.2H525.57V1368h44.88v69.57c0,21.23-9.55,31.7-27.83,31.7A30.94,30.94,0,0,1,516.16,1455Z" fill="#231f20"/><path d="M691,1441.6h-53.2l-11.46,26.83h-10.5L659.53,1368h10l43.65,100.41H702.5Zm-3.68-8.6-22.92-53.93L641.52,1433Z" fill="#231f20"/><path d="M841.24,1368v100.41h-8.32L771.53,1387v81.48H761.44V1368h8.32l61.52,81.47V1368Z" fill="#231f20"/><path d="M972.07,1418.23h9.68v38.29c-9,8.46-21.82,12.77-35.06,12.77-29.05,0-50.33-21.66-50.33-51.06s21.28-51.07,50.47-51.07c14.46,0,27,4.88,35.47,14.49l-6.28,6.74c-8-8.32-17.59-11.76-28.78-11.76-23.6,0-40.92,17.64-40.92,41.6,0,23.8,17.32,41.59,40.78,41.59,9.14,0,17.6-2.15,25-7.74Z" fill="#231f20"/><path d="M1072.34,1421.24,1052.83,1442v26.4h-10.09V1368h10.09v60.67L1108.9,1368h11.59l-41.33,45.47,44.2,54.94h-12Z" fill="#231f20"/><path d="M1228.41,1441.6H1175.2l-11.46,26.83h-10.5L1196.89,1368h10l43.65,100.41h-10.64Zm-3.69-8.6-22.91-53.93L1178.89,1433Z" fill="#231f20"/></svg>